<svg width="32" height="32" viewBox="0 0 32 32" fill="none" xmlns="http://www.w3.org/2000/svg">
<rect width="32" height="32" fill="black"/>
<path fill-rule="evenodd" clip-rule="evenodd" d="M23.5209 7.69315C23.3881 8.02136 23.3916 8.47131 23.4403 8.83045L23.4433 8.85309L20.4029 11.326C20.512 11.4619 20.6653 11.669 20.8006 11.8858C20.9278 12.0896 21.0424 12.3072 21.0862 12.4837L24.2791 9.65669L24.3002 9.66224C25.0997 9.87287 25.5991 9.70522 25.8407 9.44089C26.0829 9.17589 26.0747 8.80762 25.8511 8.58342L25.8502 8.58258L25.8495 8.58169C25.7638 8.48512 25.5977 8.42899 25.4142 8.40099C25.2332 8.37338 25.0459 8.37466 24.9294 8.38433L24.8795 8.38848L24.8857 8.33871C24.9205 8.05906 24.9023 7.88552 24.8682 7.75138C24.8106 7.52483 24.63 7.33405 24.4053 7.28174C24.154 7.22326 23.9661 7.24815 23.8258 7.32392C23.6854 7.39983 23.5869 7.52995 23.5209 7.69315ZM21.0112 12.5206H15.9978V12.602H21.0554C21.4463 12.6894 22.0376 12.8384 22.5469 13.0025C22.8026 13.085 23.0365 13.1708 23.2137 13.2542C23.3023 13.296 23.3755 13.3365 23.4299 13.3751C23.4514 13.3904 23.4692 13.4048 23.4835 13.4183H15.9978V13.4997H21.081C21.0922 14.7097 20.5996 16.7008 19.0531 17.8695C18.9054 17.9812 18.748 18.0854 18.5805 18.1806C18.2565 18.365 17.8943 18.5163 17.4905 18.6242C17.0454 18.7432 16.5495 18.8096 15.9978 18.8096H15.957V20.9486L15.995 20.9512C16.3423 20.9749 16.9512 20.9593 17.5714 20.8236C18.0264 20.724 18.4904 20.5592 18.8618 20.2954C18.8453 20.694 18.6962 21.2523 18.2963 21.7224C17.8696 22.224 17.154 22.6292 15.9978 22.6292V22.7106C17.1751 22.7106 17.9144 22.297 18.3583 21.7752C18.8006 21.2552 18.9464 20.6318 18.9448 20.2143C18.9542 19.9715 18.954 19.6141 18.9275 19.2649L23.3928 23.137C23.1677 23.6281 23.2699 24.1292 23.5267 24.4576C23.7883 24.7921 24.2161 24.9523 24.6193 24.7278C24.7989 24.6279 24.9318 24.4608 25.0086 24.2736C25.0753 24.1111 25.1212 23.9055 25.0618 23.7187C25.1569 23.7222 25.2785 23.7214 25.402 23.7016C25.5538 23.6771 25.7133 23.623 25.8296 23.5073C26.1419 23.2305 26.2266 22.7888 25.9936 22.483C25.7622 22.1793 25.2355 22.0325 24.3724 22.2925L19.1428 17.9035C20.6845 16.7103 21.1735 14.7149 21.1624 13.4997H23.6256L23.6022 13.4433C23.5821 13.395 23.5356 13.3502 23.477 13.3087C23.4172 13.2662 23.3392 13.2233 23.2483 13.1805C23.0666 13.095 22.8289 13.0079 22.5719 12.925C22.0904 12.7699 21.537 12.6284 21.1464 12.5391L24.3006 9.7465C25.1044 9.95305 25.6334 9.7884 25.9008 9.49585C26.1697 9.20173 26.1656 8.78433 25.9096 8.52673C25.8033 8.40775 25.6119 8.34877 25.4265 8.32048C25.2619 8.29537 25.0932 8.29322 24.9722 8.2998C25.0002 8.03966 24.982 7.86846 24.9471 7.7313C24.8827 7.4782 24.681 7.26228 24.4237 7.20241C24.1586 7.14072 23.9493 7.16464 23.7871 7.25227C23.6252 7.33976 23.5162 7.48762 23.4454 7.6626C23.3075 8.00354 23.3101 8.45861 23.3565 8.81869L20.3499 11.2641C20.0368 10.9227 19.463 10.4283 18.7218 10.0145C17.9593 9.58897 17.0173 9.24738 15.9978 9.24738V9.32883C16.9993 9.32883 17.9276 9.66456 18.6821 10.0856C19.3872 10.4792 19.9384 10.9462 20.2528 11.2793H15.9978V11.3608H20.3263C20.4342 11.4939 20.5927 11.7064 20.7315 11.9289C20.8639 12.1411 20.975 12.3569 21.0112 12.5206ZM19.0763 17.954C18.9471 18.0502 18.8108 18.1407 18.667 18.2248C18.7349 18.3044 18.785 18.4281 18.823 18.5705C18.8677 18.7378 18.8978 18.9398 18.9176 19.1485L23.4931 23.1161L23.4795 23.1442C23.2513 23.6149 23.3473 24.0959 23.5909 24.4074C23.8346 24.7192 24.2205 24.8566 24.5797 24.6567C24.7405 24.5672 24.8622 24.4158 24.9333 24.2427C25.0043 24.0694 25.0428 23.8629 24.9644 23.6921L24.9362 23.6306L25.0037 23.6345C25.1026 23.64 25.2452 23.6443 25.389 23.6211C25.5333 23.5979 25.6738 23.5479 25.7729 23.4488L25.7738 23.4479L25.7747 23.4471C26.0639 23.1915 26.1301 22.7966 25.9288 22.5324C25.7275 22.2681 25.2406 22.1111 24.3751 22.3768L24.354 22.3833L19.0763 17.954ZM18.8355 19.1464C18.816 18.9434 18.7866 18.7501 18.7443 18.5915C18.704 18.4405 18.6537 18.3282 18.5947 18.2662C18.2804 18.4422 17.9316 18.5876 17.5454 18.6937C17.5741 18.9496 17.608 19.2964 17.6321 19.6343C18.1571 19.4838 18.5921 19.2849 18.8355 19.1464ZM17.552 19.6566C17.5284 19.3203 17.4946 18.9731 17.4658 18.7149C17.0364 18.8254 16.5619 18.8879 16.0385 18.8909V19.8419C16.5627 19.868 17.0893 19.7826 17.552 19.6566ZM16.0385 19.9235C16.5651 19.9491 17.0927 19.8647 17.5576 19.7395C17.562 19.8063 17.5659 19.8724 17.5693 19.937C17.5805 20.1537 17.5852 20.3518 17.5789 20.5015C17.5758 20.5765 17.5699 20.638 17.5612 20.6831C17.5568 20.7057 17.552 20.7229 17.547 20.7352C17.5448 20.7406 17.5428 20.7443 17.5413 20.7468C16.956 20.8733 16.3821 20.8917 16.0385 20.8723V19.9235ZM17.6352 20.7256C17.6374 20.717 17.6394 20.7079 17.6412 20.6986C17.651 20.6476 17.6571 20.5815 17.6603 20.5049C17.6667 20.3514 17.6619 20.1503 17.6506 19.9328C17.647 19.8624 17.6426 19.7903 17.6378 19.7173C18.1555 19.5705 18.5881 19.3765 18.8434 19.2353C18.8718 19.5832 18.873 19.9445 18.8641 20.1928C18.5187 20.453 18.0784 20.621 17.6352 20.7256Z" fill="#FBFBFB" stroke="#FBFBFB" stroke-width="0.347987"/>
<path fill-rule="evenodd" clip-rule="evenodd" d="M8.47518 7.69315C8.60795 8.02136 8.60453 8.47131 8.55583 8.83045L8.55276 8.85309L11.5932 11.326C11.4841 11.4619 11.3308 11.669 11.1955 11.8858C11.0683 12.0896 10.9537 12.3072 10.9099 12.4837L7.71697 9.65669L7.69591 9.66224C6.89644 9.87287 6.39701 9.70522 6.15539 9.44089C5.91316 9.17589 5.92138 8.80762 6.14501 8.58342L6.14585 8.58258L6.14664 8.58169C6.23233 8.48512 6.39839 8.42899 6.58191 8.40099C6.76291 8.37338 6.95016 8.37466 7.06665 8.38433L7.11664 8.38848L7.11043 8.33871C7.07559 8.05906 7.0938 7.88552 7.12791 7.75138C7.18553 7.52483 7.36606 7.33405 7.59083 7.28174C7.84213 7.22326 8.03004 7.24815 8.17026 7.32392C8.31072 7.39983 8.40917 7.52995 8.47518 7.69315ZM10.9849 12.5206H15.9983V12.602H10.9407C10.5498 12.6894 9.95847 12.8384 9.44919 13.0025C9.19345 13.085 8.95957 13.1708 8.78244 13.2542C8.69381 13.296 8.62055 13.3365 8.56621 13.3751C8.54468 13.3904 8.52691 13.4048 8.51257 13.4183H15.9983V13.4997H10.9151C10.9039 14.7097 11.3965 16.7008 12.943 17.8695C13.0907 17.9812 13.2481 18.0854 13.4156 18.1806C13.7396 18.365 14.1018 18.5163 14.5056 18.6242C14.9507 18.7432 15.4466 18.8096 15.9983 18.8096H16.0391V20.9486L16.0011 20.9512C15.6538 20.9749 15.0449 20.9593 14.4247 20.8236C13.9697 20.724 13.5057 20.5592 13.1343 20.2954C13.1508 20.694 13.2999 21.2523 13.6998 21.7224C14.1265 22.224 14.8421 22.6292 15.9983 22.6292V22.7106C14.821 22.7106 14.0817 22.297 13.6377 21.7752C13.1955 21.2552 13.0497 20.6318 13.0513 20.2143C13.0419 19.9715 13.0421 19.6141 13.0686 19.2649L8.60325 23.137C8.82842 23.6281 8.72622 24.1292 8.46939 24.4576C8.20783 24.7921 7.78004 24.9522 7.37679 24.7278C7.19724 24.6279 7.06428 24.4608 6.98748 24.2736C6.92083 24.1111 6.87488 23.9055 6.93427 23.7187C6.83918 23.7222 6.7176 23.7214 6.59412 23.7016C6.44229 23.6771 6.28276 23.623 6.16653 23.5073C5.85419 23.2305 5.76953 22.7888 6.00252 22.483C6.23388 22.1793 6.76059 22.0325 7.62365 22.2925L12.8533 17.9035C11.3116 16.7103 10.8226 14.7149 10.8337 13.4997H8.37047L8.39391 13.4433C8.414 13.395 8.46052 13.3502 8.51908 13.3087C8.57891 13.2662 8.65694 13.2233 8.74775 13.1805C8.9295 13.095 9.16719 13.0079 9.4242 12.925C9.90566 12.7699 10.4591 12.6284 10.8497 12.5391L7.69554 9.7465C6.89166 9.95305 6.3627 9.7884 6.09528 9.49585C5.82643 9.20173 5.83046 8.78433 6.08653 8.52673C6.1928 8.40775 6.38415 8.34877 6.56963 8.32048C6.73423 8.29537 6.90288 8.29322 7.02392 8.2998C6.99591 8.03966 7.0141 7.86846 7.04898 7.7313C7.11335 7.4782 7.31512 7.26228 7.57237 7.20241C7.83747 7.14072 8.04683 7.16464 8.20898 7.25227C8.37088 7.33976 8.4799 7.48762 8.55069 7.6626C8.6886 8.00354 8.686 8.45861 8.63955 8.81869L11.6462 11.2641C11.9592 10.9227 12.5331 10.4283 13.2743 10.0145C14.0368 9.58897 14.9788 9.24738 15.9983 9.24738V9.32883C14.9968 9.32883 14.0685 9.66456 13.314 10.0856C12.6089 10.4792 12.0577 10.9462 11.7433 11.2793H15.9983V11.3608H11.6698C11.5619 11.4939 11.4034 11.7064 11.2646 11.9289C11.1322 12.1411 11.0211 12.3569 10.9849 12.5206ZM12.9198 17.954C13.049 18.0502 13.1853 18.1407 13.3291 18.2248C13.2612 18.3044 13.2111 18.4281 13.1731 18.5705C13.1284 18.7378 13.0983 18.9398 13.0785 19.1485L8.503 23.1161L8.51661 23.1442C8.74477 23.6149 8.64882 24.0959 8.40523 24.4074C8.16145 24.7192 7.77562 24.8566 7.41639 24.6567C7.2556 24.5672 7.13385 24.4158 7.06283 24.2427C6.99176 24.0694 6.95331 23.8629 7.03171 23.6921L7.05992 23.6306L6.9924 23.6345C6.89352 23.64 6.75085 23.6443 6.60707 23.6211C6.46283 23.5979 6.32229 23.5479 6.22322 23.4488L6.22233 23.4479L6.22139 23.4471C5.93224 23.1915 5.86599 22.7966 6.06731 22.5324C6.2686 22.2681 6.75552 22.1111 7.62097 22.3768L7.64214 22.3833L12.9198 17.954ZM13.1606 19.1464C13.1801 18.9434 13.2094 18.7501 13.2518 18.5915C13.2921 18.4405 13.3424 18.3282 13.4014 18.2662C13.7157 18.4422 14.0645 18.5876 14.4507 18.6937C14.422 18.9496 14.3881 19.2964 14.364 19.6343C13.839 19.4838 13.404 19.2849 13.1606 19.1464ZM14.4441 19.6566C14.4677 19.3203 14.5015 18.9731 14.5303 18.7149C14.9597 18.8254 15.4342 18.8879 15.9576 18.8909V19.8419C15.4334 19.868 14.9068 19.7826 14.4441 19.6566ZM15.9576 19.9235C15.431 19.9491 14.9034 19.8647 14.4385 19.7395C14.4341 19.8063 14.4302 19.8724 14.4268 19.937C14.4156 20.1537 14.4109 20.3518 14.4172 20.5015C14.4203 20.5765 14.4262 20.638 14.4349 20.6831C14.4393 20.7057 14.4441 20.7229 14.4491 20.7352C14.4513 20.7405 14.4533 20.7443 14.4548 20.7468C15.0401 20.8733 15.614 20.8917 15.9576 20.8723V19.9235ZM14.3609 20.7256C14.3587 20.717 14.3567 20.7079 14.3549 20.6986C14.3451 20.6476 14.339 20.5815 14.3358 20.5049C14.3294 20.3514 14.3342 20.1503 14.3455 19.9328C14.3491 19.8624 14.3534 19.7903 14.3583 19.7173C13.8406 19.5705 13.408 19.3765 13.1527 19.2353C13.1243 19.5832 13.1231 19.9445 13.132 20.1928C13.4774 20.453 13.9177 20.621 14.3609 20.7256Z" fill="#FBFBFB" stroke="#FBFBFB" stroke-width="0.347987"/>
<path fill-rule="evenodd" clip-rule="evenodd" d="M18.2174 14.1049C17.3401 14.1049 16.6322 14.7822 16.6322 15.6137C16.6322 16.4452 17.3401 17.1226 18.2174 17.1226C19.0948 17.1226 19.8026 16.4452 19.8026 15.6137C19.8026 14.7822 19.0948 14.1049 18.2174 14.1049ZM16.5508 15.6137C16.5508 14.7336 17.2988 14.0234 18.2174 14.0234C19.136 14.0234 19.8841 14.7336 19.8841 15.6137C19.8841 16.4938 19.136 17.204 18.2174 17.204C17.2988 17.204 16.5508 16.4938 16.5508 15.6137Z" fill="#FBFBFB" stroke="#FBFBFB" stroke-width="0.347987"/>
<path fill-rule="evenodd" clip-rule="evenodd" d="M13.7096 14.1049C12.8323 14.1049 12.1244 14.7822 12.1244 15.6137C12.1244 16.4452 12.8323 17.1226 13.7096 17.1226C14.587 17.1226 15.2948 16.4452 15.2948 15.6137C15.2948 14.7822 14.587 14.1049 13.7096 14.1049ZM12.043 15.6137C12.043 14.7336 12.791 14.0234 13.7096 14.0234C14.6282 14.0234 15.3762 14.7336 15.3762 15.6137C15.3762 16.4938 14.6282 17.204 13.7096 17.204C12.791 17.204 12.043 16.4938 12.043 15.6137Z" fill="#FBFBFB" stroke="#FBFBFB" stroke-width="0.347987"/>
<path fill-rule="evenodd" clip-rule="evenodd" d="M15.9536 16.8471C15.5992 16.8471 15.3119 17.1344 15.3119 17.4888C15.3119 17.8432 15.5992 18.1305 15.9536 18.1305C16.308 18.1305 16.5953 17.8432 16.5953 17.4888C16.5953 17.1344 16.308 16.8471 15.9536 16.8471ZM15.2305 17.4888C15.2305 17.0894 15.5542 16.7656 15.9536 16.7656C16.353 16.7656 16.6768 17.0894 16.6768 17.4888C16.6768 17.8882 16.353 18.2119 15.9536 18.2119C15.5542 18.2119 15.2305 17.8882 15.2305 17.4888Z" fill="#FBFBFB" stroke="#FBFBFB" stroke-width="0.347987"/>
</svg>
