<svg width="362" height="119" viewBox="0 0 362 119" fill="none" xmlns="http://www.w3.org/2000/svg">
<path d="M360.87 92.844V93.344H361.37V92.844H360.87ZM2.81641 92.844V92.344H2.31641V92.844H2.81641ZM0.14974 115.586C0.14974 117.059 1.34365 118.253 2.81641 118.253C4.28917 118.253 5.48307 117.059 5.48307 115.586C5.48307 114.113 4.28917 112.919 2.81641 112.919C1.34365 112.919 0.14974 114.113 0.14974 115.586ZM360.37 0.0078125V1.83938H361.37V0.0078125H360.37ZM360.37 1.83938V92.844H361.37V1.83938H360.37ZM360.87 92.344H2.81641V93.344H360.87V92.344ZM2.31641 92.844V115.586H3.31641V92.844H2.31641Z" fill="black" fill-opacity="0.2"/>
</svg>
