<svg width="276" height="282" viewBox="0 0 276 282" fill="none" xmlns="http://www.w3.org/2000/svg">
<path d="M270.242 2.78906C270.242 4.26182 271.436 5.45573 272.909 5.45573C274.382 5.45573 275.576 4.26182 275.576 2.78906C275.576 1.3163 274.382 0.122396 272.909 0.122396C271.436 0.122396 270.242 1.3163 270.242 2.78906ZM272.909 278.836V279.336H273.409V278.836H272.909ZM0.598958 278.836C0.598958 280.309 1.79287 281.503 3.26562 281.503C4.73838 281.503 5.93229 280.309 5.93229 278.836C5.93229 277.363 4.73838 276.169 3.26562 276.169C1.79287 276.169 0.598958 277.363 0.598958 278.836ZM272.409 2.78906V278.836H273.409V2.78906H272.409ZM272.909 278.336H3.26562V279.336H272.909V278.336Z" fill="black" fill-opacity="0.2"/>
</svg>
