<svg width="213" height="53" viewBox="0 0 213 53" fill="none" xmlns="http://www.w3.org/2000/svg">
<path fill-rule="evenodd" clip-rule="evenodd" d="M51.7283 2.50919C51.3468 3.45236 51.3566 4.74537 51.4965 5.77743L51.5054 5.8425L42.7681 12.9488C43.0816 13.3395 43.5222 13.9344 43.9111 14.5575C44.2766 15.1432 44.6059 15.7684 44.7316 16.2756L53.9072 8.15178L53.9677 8.16772C56.2651 8.773 57.7003 8.29122 58.3946 7.53164C59.0907 6.77012 59.0671 5.71182 58.4245 5.06755L58.422 5.06513L58.4198 5.06258C58.1735 4.78505 57.6963 4.62375 57.169 4.54331C56.6488 4.46397 56.1107 4.46764 55.776 4.49543L55.6323 4.50736L55.6501 4.36434C55.7503 3.5607 55.698 3.06201 55.5999 2.67652C55.4344 2.02552 54.9156 1.47726 54.2696 1.32694C53.5475 1.15888 53.0075 1.2304 52.6046 1.44816C52.2009 1.66629 51.918 2.04022 51.7283 2.50919ZM44.5162 16.3816H30.1092V16.6157H44.6433C45.7665 16.8668 47.4658 17.295 48.9293 17.7667C49.6642 18.0035 50.3363 18.2503 50.8453 18.4899C51.1001 18.6099 51.3106 18.7264 51.4667 18.8373C51.5286 18.8812 51.5797 18.9226 51.6209 18.9613H30.1092V19.1954H44.7167C44.7491 22.6724 43.3335 28.3941 38.8893 31.7528C38.4648 32.0736 38.0126 32.373 37.5313 32.6468C36.6 33.1767 35.5593 33.6114 34.3989 33.9216C33.1198 34.2635 31.6946 34.4543 30.1092 34.4543H29.9922V40.6011L30.1013 40.6085C31.0993 40.6765 32.849 40.6318 34.6314 40.2418C35.9388 39.9557 37.2721 39.4821 38.3395 38.7239C38.2922 39.8693 37.8637 41.4737 36.7145 42.8247C35.4882 44.2662 33.4318 45.4305 30.1092 45.4305V45.6646C33.4925 45.6646 35.6171 44.4759 36.8928 42.9763C38.1638 41.4822 38.5826 39.6905 38.578 38.4908C38.605 37.7933 38.6046 36.766 38.5282 35.7627L51.3603 46.8898C50.7132 48.301 51.0069 49.7409 51.7449 50.6848C52.4966 51.646 53.7259 52.1062 54.8847 51.4613C55.4007 51.1742 55.7828 50.694 56.0035 50.156C56.195 49.6891 56.3271 49.0982 56.1564 48.5615C56.4297 48.5714 56.779 48.5693 57.1339 48.5121C57.5702 48.4419 58.0286 48.2864 58.3626 47.9539C59.2602 47.1584 59.5035 45.8892 58.8339 45.0104C58.1691 44.1377 56.6555 43.7159 54.1753 44.463L39.147 31.8504C43.5774 28.4216 44.9826 22.6874 44.9508 19.1954H52.0292L51.9619 19.0334C51.9041 18.8946 51.7704 18.7658 51.6022 18.6464C51.4302 18.5244 51.206 18.401 50.945 18.2782C50.4227 18.0322 49.7397 17.7819 49.0011 17.5439C47.6176 17.098 46.0273 16.6915 44.9048 16.4349L53.9687 8.40985C56.2788 9.00342 57.7989 8.53027 58.5674 7.68956C59.34 6.84436 59.3284 5.64488 58.5925 4.90463C58.2871 4.56272 57.7373 4.39324 57.2043 4.31193C56.7312 4.23978 56.2466 4.2336 55.8988 4.25251C55.9793 3.50497 55.927 3.013 55.8267 2.61883C55.6418 1.8915 55.062 1.27103 54.3227 1.09898C53.5609 0.921693 52.9592 0.990444 52.4933 1.24225C52.028 1.49367 51.7147 1.91859 51.5113 2.42142C51.115 3.40116 51.1225 4.70887 51.256 5.74364L42.6158 12.771C41.7163 11.7897 40.0673 10.369 37.9371 9.18008C35.7461 7.95717 33.039 6.97556 30.1092 6.97556V7.20961C32.9874 7.20961 35.655 8.17439 37.823 9.38445C39.8495 10.5155 41.4332 11.8575 42.3368 12.8147H30.1092V13.0488H42.548C42.8582 13.4314 43.3135 14.042 43.7125 14.6814C44.0931 15.2912 44.4122 15.9113 44.5162 16.3816ZM38.9558 31.9955C38.5846 32.2718 38.1928 32.5321 37.7797 32.7738C37.9749 33.0025 38.1188 33.3579 38.228 33.7672C38.3564 34.2479 38.443 34.8283 38.4998 35.4283L51.6484 46.8298L51.6093 46.9105C50.9536 48.2632 51.2293 49.6454 51.9293 50.5406C52.6299 51.4365 53.7386 51.8313 54.7709 51.2568C55.233 50.9997 55.5828 50.5647 55.7869 50.0672C55.9912 49.5693 56.1017 48.9758 55.8764 48.485L55.7953 48.3083L55.9893 48.3193C56.2735 48.3354 56.6835 48.3476 57.0966 48.2811C57.5112 48.2143 57.915 48.0705 58.1997 47.7858L58.2023 47.7832L58.205 47.7809C59.0359 47.0464 59.2263 45.9116 58.6477 45.1522C58.0693 44.393 56.6701 43.9418 54.183 44.7053L54.1222 44.7239L38.9558 31.9955ZM38.264 35.422C38.2079 34.8389 38.1236 34.2834 38.0019 33.8275C37.8861 33.3937 37.7416 33.0707 37.572 32.8926C36.6688 33.3985 35.6665 33.8164 34.5566 34.1213C34.6391 34.8566 34.7366 35.8531 34.8057 36.824C36.3144 36.3917 37.5644 35.8201 38.264 35.422ZM34.5756 36.8883C34.5077 35.9217 34.4107 34.924 34.3279 34.1822C33.0939 34.4997 31.7304 34.6792 30.2262 34.688V37.4208C31.7328 37.4956 33.2459 37.2502 34.5756 36.8883ZM30.2262 37.6551C31.7396 37.7287 33.2558 37.4863 34.5918 37.1264C34.6044 37.3185 34.6156 37.5085 34.6253 37.6939C34.6575 38.3168 34.671 38.886 34.653 39.3162C34.6439 39.5317 34.6272 39.7085 34.6021 39.8381C34.5895 39.9031 34.5755 39.9526 34.5611 39.9878C34.5549 40.0032 34.5493 40.0139 34.5449 40.0211C32.8628 40.3848 31.2136 40.4376 30.2262 40.3818V37.6551ZM34.8148 39.9601C34.821 39.9354 34.8267 39.9095 34.8319 39.8826C34.8602 39.7362 34.8776 39.5461 34.8868 39.326C34.9053 38.8848 34.8914 38.307 34.859 37.6818C34.8485 37.4797 34.8361 37.2724 34.8222 37.0627C36.3098 36.6408 37.553 36.0832 38.2867 35.6776C38.3683 36.6772 38.3717 37.7155 38.3461 38.4291C37.3536 39.1768 36.0882 39.6595 34.8148 39.9601Z" fill="#FBFBFB" stroke="#FBFBFB"/>
<path fill-rule="evenodd" clip-rule="evenodd" d="M8.48654 2.50919C8.86806 3.45236 8.85825 4.74537 8.71831 5.77743L8.70948 5.8425L17.4467 12.9488C17.1332 13.3395 16.6926 13.9344 16.3038 14.5575C15.9382 15.1432 15.6089 15.7684 15.4832 16.2756L6.30769 8.15178L6.24717 8.16772C3.94976 8.773 2.51455 8.29122 1.82023 7.53164C1.12411 6.77012 1.14775 5.71182 1.79039 5.06755L1.7928 5.06513L1.79507 5.06258C2.04132 4.78505 2.51853 4.62375 3.04589 4.54331C3.56602 4.46397 4.10412 4.46764 4.43889 4.49544L4.58252 4.50736L4.5647 4.36434C4.46456 3.5607 4.51689 3.06201 4.61493 2.67652C4.78049 2.02552 5.29929 1.47726 5.94521 1.32694C6.66735 1.15888 7.20733 1.2304 7.61028 1.44816C8.01393 1.66629 8.29683 2.04022 8.48654 2.50919ZM15.6987 16.3816H30.1056V16.6157H15.5715C14.4483 16.8668 12.749 17.295 11.2855 17.7667C10.5506 18.0035 9.87852 18.2503 9.3695 18.4899C9.11479 18.6099 8.90429 18.7264 8.74813 18.8373C8.68625 18.8812 8.63518 18.9226 8.59399 18.9613H30.1056V19.1954H15.4981C15.4657 22.6724 16.8814 28.3941 21.3255 31.7528C21.75 32.0736 22.2022 32.373 22.6835 32.6468C23.6148 33.1767 24.6555 33.6114 25.816 33.9216C27.095 34.2635 28.5202 34.4543 30.1056 34.4543H30.2227V40.6011L30.1136 40.6085C29.1156 40.6765 27.3659 40.6318 25.5835 40.2418C24.276 39.9557 22.9427 39.4821 21.8753 38.7239C21.9226 39.8693 22.3511 41.4737 23.5003 42.8247C24.7266 44.2662 26.783 45.4305 30.1056 45.4305V45.6646C26.7223 45.6646 24.5977 44.4759 23.3221 42.9763C22.0511 41.4822 21.6322 39.6905 21.6369 38.4908C21.6098 37.7933 21.6103 36.7661 21.6866 35.7627L8.85456 46.8898C9.50163 48.301 9.20792 49.7409 8.4699 50.6848C7.71824 51.646 6.48893 52.1062 5.3301 51.4613C4.81415 51.1742 4.43206 50.694 4.21136 50.156C4.01983 49.6891 3.88778 49.0982 4.05846 48.5615C3.78519 48.5714 3.43583 48.5693 3.08099 48.5121C2.64468 48.4419 2.18624 48.2863 1.85221 47.9539C0.954672 47.1584 0.711388 45.8893 1.38091 45.0104C2.04576 44.1377 3.55936 43.7159 6.03952 44.463L21.0679 31.8504C16.6375 28.4216 15.2323 22.6874 15.2641 19.1954H8.18563L8.25298 19.0334C8.31071 18.8946 8.44441 18.7658 8.61268 18.6464C8.78462 18.5244 9.00884 18.401 9.26979 18.2782C9.79211 18.0322 10.4751 17.7819 11.2137 17.5439C12.5973 17.098 14.1876 16.6915 15.31 16.4349L6.2461 8.40985C3.936 9.00342 2.41596 8.53027 1.64747 7.68956C0.874879 6.84436 0.88647 5.64488 1.62232 4.90463C1.92772 4.56272 2.47758 4.39324 3.01059 4.31193C3.48361 4.23978 3.96825 4.2336 4.31607 4.25251C4.23558 3.50497 4.28785 3.013 4.3881 2.61883C4.57307 1.8915 5.15289 1.27103 5.89216 1.09898C6.65396 0.921693 7.25559 0.990444 7.72155 1.24225C8.18681 1.49367 8.50011 1.91859 8.70351 2.42142C9.09983 3.40116 9.09237 4.70887 8.95887 5.74364L17.599 12.771C18.4986 11.7897 20.1476 10.369 22.2777 9.18008C24.4688 7.95717 27.1759 6.97556 30.1056 6.97556V7.20961C27.2275 7.20961 24.5598 8.17439 22.3918 9.38445C20.3654 10.5155 18.7816 11.8575 17.878 12.8147H30.1056V13.0488H17.6668C17.3567 13.4314 16.9014 14.042 16.5023 14.6814C16.1218 15.2912 15.8027 15.9113 15.6987 16.3816ZM21.259 31.9955C21.6302 32.2718 22.022 32.5321 22.4352 32.7738C22.24 33.0025 22.096 33.3579 21.9868 33.7672C21.8585 34.2479 21.7718 34.8283 21.7151 35.4283L8.56646 46.8298L8.60558 46.9105C9.26124 48.2632 8.98552 49.6454 8.28552 50.5406C7.58497 51.4365 6.47622 51.8313 5.44391 51.2568C4.98185 50.9997 4.63199 50.5647 4.4279 50.0672C4.22366 49.5693 4.11318 48.9758 4.33846 48.485L4.41953 48.3083L4.2255 48.3193C3.94134 48.3354 3.53136 48.3476 3.11819 48.2811C2.70368 48.2143 2.29984 48.0705 2.01513 47.7858L2.01258 47.7832L2.00988 47.7809C1.17895 47.0464 0.988573 45.9116 1.5671 45.1522C2.14553 44.393 3.54478 43.9418 6.03182 44.7053L6.09265 44.7239L21.259 31.9955ZM21.9508 35.422C22.0069 34.8389 22.0913 34.2834 22.2129 33.8275C22.3287 33.3937 22.4733 33.0707 22.6429 32.8926C23.5461 33.3985 24.5484 33.8164 25.6582 34.1213C25.5757 34.8566 25.4782 35.8531 25.4091 36.824C23.9004 36.3917 22.6505 35.8201 21.9508 35.422ZM25.6392 36.8883C25.7071 35.9217 25.8041 34.924 25.8869 34.1822C27.1209 34.4997 28.4845 34.6792 29.9886 34.688V37.4208C28.4821 37.4956 26.969 37.2502 25.6392 36.8883ZM29.9886 37.6551C28.4753 37.7287 26.9591 37.4863 25.6231 37.1264C25.6105 37.3186 25.5992 37.5085 25.5896 37.6939C25.5573 38.3168 25.5439 38.886 25.5619 39.3162C25.5709 39.5317 25.5877 39.7085 25.6128 39.8381C25.6253 39.9031 25.6393 39.9526 25.6537 39.9878C25.66 40.0032 25.6656 40.0139 25.6699 40.0211C27.352 40.3848 29.0012 40.4376 29.9886 40.3818V37.6551ZM25.4 39.9601C25.3938 39.9354 25.3882 39.9095 25.383 39.8826C25.3547 39.7362 25.3373 39.5461 25.328 39.326C25.3096 38.8848 25.3234 38.307 25.3559 37.6818C25.3663 37.4797 25.3788 37.2724 25.3927 37.0627C23.9051 36.6408 22.6618 36.0832 21.9281 35.6776C21.8466 36.6772 21.8431 37.7155 21.8688 38.4291C22.8613 39.1768 24.1267 39.6595 25.4 39.9601Z" fill="#FBFBFB" stroke="#FBFBFB"/>
<path fill-rule="evenodd" clip-rule="evenodd" d="M36.4886 20.9269C33.9674 20.9269 31.9333 22.8734 31.9333 25.2628C31.9333 27.6522 33.9674 29.5987 36.4886 29.5987C39.0098 29.5987 41.0439 27.6522 41.0439 25.2628C41.0439 22.8734 39.0098 20.9269 36.4886 20.9269ZM31.6992 25.2628C31.6992 22.7337 33.8489 20.6929 36.4886 20.6929C39.1283 20.6929 41.278 22.7337 41.278 25.2628C41.278 27.792 39.1283 29.8328 36.4886 29.8328C33.8489 29.8328 31.6992 27.792 31.6992 25.2628Z" fill="#FBFBFB" stroke="#FBFBFB"/>
<path fill-rule="evenodd" clip-rule="evenodd" d="M23.5277 20.9269C21.0065 20.9269 18.9723 22.8734 18.9723 25.2628C18.9723 27.6522 21.0065 29.5987 23.5277 29.5987C26.0489 29.5987 28.083 27.6522 28.083 25.2628C28.083 22.8734 26.0489 20.9269 23.5277 20.9269ZM18.7383 25.2628C18.7383 22.7337 20.8879 20.6929 23.5277 20.6929C26.1674 20.6929 28.317 22.7337 28.317 25.2628C28.317 27.792 26.1674 29.8328 23.5277 29.8328C20.8879 29.8328 18.7383 27.792 18.7383 25.2628Z" fill="#FBFBFB" stroke="#FBFBFB"/>
<path fill-rule="evenodd" clip-rule="evenodd" d="M29.9766 28.8097C28.9581 28.8097 28.1325 29.6354 28.1325 30.6538C28.1325 31.6723 28.9581 32.4979 29.9766 32.4979C30.995 32.4979 31.8206 31.6723 31.8206 30.6538C31.8206 29.6354 30.995 28.8097 29.9766 28.8097ZM27.8984 30.6538C27.8984 29.5061 28.8288 28.5757 29.9766 28.5757C31.1243 28.5757 32.0547 29.5061 32.0547 30.6538C32.0547 31.8015 31.1243 32.7319 29.9766 32.7319C28.8288 32.7319 27.8984 31.8015 27.8984 30.6538Z" fill="#FBFBFB" stroke="#FBFBFB"/>
<path d="M92.5748 21.1204L93.2148 21.1524L93.0228 23.8724C92.7242 23.723 92.4362 23.6484 92.1588 23.6484C90.5375 23.6484 89.7162 25.3337 89.6948 28.7044V38.8804H87.2308V21.6004H88.7348L89.4388 24.5444C89.8655 22.2617 90.9108 21.1204 92.5748 21.1204ZM95.4808 21.6004H96.9848L97.6248 24.3844C98.1155 22.2084 99.2035 21.1204 100.889 21.1204C102.02 21.1204 102.884 21.6004 103.481 22.5604C104.078 23.5204 104.377 25.2804 104.377 27.8404V32.6404C104.377 35.2004 104.078 36.9604 103.481 37.9204C102.884 38.8804 102.02 39.3604 100.889 39.3604C99.3315 39.3604 98.3075 38.3577 97.8168 36.3524V44.6404H95.4808V21.6004ZM97.8168 30.2404C97.8168 32.1604 97.9342 33.675 98.1688 34.7844C98.4248 35.8937 98.7128 36.6084 99.0328 36.9284C99.3528 37.227 99.7795 37.3764 100.313 37.3764C101.465 37.3764 102.041 36.0537 102.041 33.4084V27.0724C102.041 24.427 101.476 23.1044 100.345 23.1044C99.8542 23.1044 99.4382 23.2537 99.0968 23.5524C98.7768 23.851 98.4888 24.5124 98.2328 25.5364C97.9768 26.5604 97.8382 27.979 97.8168 29.7924V30.2404ZM116.494 27.8404V32.6404C116.494 35.179 116.099 36.939 115.31 37.9204C114.542 38.8804 113.432 39.3604 111.982 39.3604C110.552 39.3604 109.443 38.8804 108.654 37.9204C107.886 36.939 107.502 35.179 107.502 32.6404V27.8404C107.502 25.3017 107.886 23.5524 108.654 22.5924C109.443 21.611 110.552 21.1204 111.982 21.1204C113.432 21.1204 114.542 21.611 115.31 22.5924C116.099 23.5524 116.494 25.3017 116.494 27.8404ZM114.03 33.0884V27.3924C114.03 24.5337 113.358 23.1044 112.014 23.1044C110.627 23.1044 109.934 24.5337 109.934 27.3924V33.0884C109.934 35.947 110.627 37.3764 112.014 37.3764C113.358 37.3764 114.03 35.947 114.03 33.0884ZM120.075 21.6004H121.579L122.219 24.3844C122.709 22.2084 123.797 21.1204 125.483 21.1204C126.613 21.1204 127.477 21.6004 128.075 22.5604C128.672 23.5204 128.971 25.2804 128.971 27.8404V32.6404C128.971 35.2004 128.672 36.9604 128.075 37.9204C127.477 38.8804 126.613 39.3604 125.483 39.3604C123.925 39.3604 122.901 38.3577 122.411 36.3524V44.6404H120.075V21.6004ZM122.411 30.2404C122.411 32.1604 122.528 33.675 122.763 34.7844C123.019 35.8937 123.307 36.6084 123.627 36.9284C123.947 37.227 124.373 37.3764 124.907 37.3764C126.059 37.3764 126.635 36.0537 126.635 33.4084V27.0724C126.635 24.427 126.069 23.1044 124.939 23.1044C124.448 23.1044 124.032 23.2537 123.691 23.5524C123.371 23.851 123.083 24.5124 122.827 25.5364C122.571 26.5604 122.432 27.979 122.411 29.7924V30.2404ZM141.087 27.8404V32.6404C141.087 35.179 140.693 36.939 139.903 37.9204C139.135 38.8804 138.026 39.3604 136.575 39.3604C135.146 39.3604 134.037 38.8804 133.247 37.9204C132.479 36.939 132.095 35.179 132.095 32.6404V27.8404C132.095 25.3017 132.479 23.5524 133.247 22.5924C134.037 21.611 135.146 21.1204 136.575 21.1204C138.026 21.1204 139.135 21.611 139.903 22.5924C140.693 23.5524 141.087 25.3017 141.087 27.8404ZM138.623 33.0884V27.3924C138.623 24.5337 137.951 23.1044 136.607 23.1044C135.221 23.1044 134.527 24.5337 134.527 27.3924V33.0884C134.527 35.947 135.221 37.3764 136.607 37.3764C137.951 37.3764 138.623 35.947 138.623 33.0884ZM145.66 21.6004L148.124 35.0084L150.62 21.6004H153.084L149.468 38.8804H146.812L143.164 21.6004H145.66ZM155.606 38.8804V21.6004H158.07V38.8804H155.606ZM155.51 18.2084V15.2004H158.166V18.2084H155.51ZM170.266 33.8564C170.095 35.9257 169.637 37.3657 168.89 38.1764C168.143 38.9657 167.119 39.3604 165.818 39.3604C164.538 39.3604 163.525 38.9124 162.778 38.0164C162.031 37.099 161.658 35.5204 161.658 33.2804V27.8404C161.658 25.3017 162.031 23.5524 162.778 22.5924C163.525 21.611 164.538 21.1204 165.818 21.1204C167.119 21.1204 168.133 21.4724 168.858 22.1764C169.583 22.8804 170.021 24.1497 170.17 25.9844L167.93 26.5924C167.845 24.267 167.194 23.1044 165.978 23.1044C165.359 23.1044 164.89 23.3817 164.57 23.9364C164.25 24.491 164.09 25.643 164.09 27.3924V33.5044C164.09 34.9977 164.25 36.011 164.57 36.5444C164.911 37.0777 165.391 37.3444 166.01 37.3444C166.629 37.3444 167.109 37.0884 167.45 36.5764C167.791 36.043 168.037 35.0297 168.186 33.5364L170.266 33.8564ZM172.496 38.8804V35.9364H175.024V38.8804H172.496ZM181.427 39.3604C180.318 39.3604 179.454 38.8804 178.835 37.9204C178.238 36.939 177.939 35.179 177.939 32.6404V27.8404C177.939 25.3017 178.238 23.5524 178.835 22.5924C179.454 21.611 180.318 21.1204 181.427 21.1204C182.963 21.1204 184.008 22.0377 184.563 23.8724V15.2004H186.899V38.8804H185.395L184.627 35.5524C184.2 38.091 183.134 39.3604 181.427 39.3604ZM184.115 34.8164C184.35 33.707 184.467 32.1817 184.467 30.2404C184.467 28.299 184.339 26.7844 184.083 25.6964C183.848 24.587 183.56 23.883 183.219 23.5844C182.899 23.2644 182.472 23.1044 181.939 23.1044C180.851 23.1044 180.307 24.427 180.307 27.0724V33.4084C180.307 34.8804 180.456 35.915 180.755 36.5124C181.054 37.0884 181.47 37.3764 182.003 37.3764C182.536 37.3764 182.963 37.227 183.283 36.9284C183.603 36.6084 183.88 35.9044 184.115 34.8164ZM199.398 34.4004C199.249 36.2564 198.812 37.547 198.086 38.2724C197.361 38.9977 196.305 39.3604 194.918 39.3604C193.553 39.3604 192.465 38.8804 191.654 37.9204C190.865 36.939 190.47 35.179 190.47 32.6404V27.8404C190.47 25.3017 190.865 23.5524 191.654 22.5924C192.465 21.611 193.596 21.1204 195.046 21.1204C196.497 21.1204 197.596 21.6004 198.342 22.5604C199.089 23.5204 199.462 25.2804 199.462 27.8404V31.2644H192.902V33.0884C192.902 35.947 193.585 37.3764 194.95 37.3764C195.612 37.3764 196.124 37.1417 196.486 36.6724C196.849 36.203 197.105 35.3284 197.254 34.0484L199.398 34.4004ZM192.902 27.3924V29.2164H196.998V27.3924C196.998 24.5337 196.326 23.1044 194.982 23.1044C193.596 23.1044 192.902 24.5337 192.902 27.3924ZM204.035 21.6004L206.499 35.0084L208.995 21.6004H211.459L207.843 38.8804H205.187L201.539 21.6004H204.035Z" fill="white"/>
</svg>
