<svg width="364" height="298" viewBox="0 0 364 298" fill="none" xmlns="http://www.w3.org/2000/svg">
<path d="M360.87 271.844V272.344H361.37V271.844H360.87ZM2.81641 271.844V271.344H2.31641V271.844H2.81641ZM0.14974 294.586C0.14974 296.059 1.34365 297.253 2.81641 297.253C4.28917 297.253 5.48307 296.059 5.48307 294.586C5.48307 293.113 4.28917 291.919 2.81641 291.919C1.34365 291.919 0.14974 293.113 0.14974 294.586ZM360.37 178.973V180.839H361.37V178.973H360.37ZM360.37 180.839V271.844H361.37V180.839H360.37ZM360.87 271.344H2.81641V272.344H360.87V271.344ZM2.31641 271.844V294.586H3.31641V271.844H2.31641Z" fill="black" fill-opacity="0.2"/>
<path d="M358.204 3.04687C358.204 4.51963 359.398 5.71354 360.871 5.71354C362.344 5.71354 363.538 4.51963 363.538 3.04688C363.538 1.57412 362.344 0.380208 360.871 0.380208C359.398 0.380208 358.204 1.57412 358.204 3.04687ZM360.371 3.04687L360.371 179.047L361.371 179.047L361.371 3.04688L360.371 3.04687Z" fill="white" fill-opacity="0.2"/>
</svg>
