<svg width="6" height="184" viewBox="0 0 6 184" fill="none" xmlns="http://www.w3.org/2000/svg">
<path d="M0.333333 180.5C0.333333 181.973 1.52724 183.167 3 183.167C4.47276 183.167 5.66667 181.973 5.66667 180.5C5.66667 179.027 4.47276 177.833 3 177.833C1.52724 177.833 0.333333 179.027 0.333333 180.5ZM2.5 106V180.5H3.5V106H2.5Z" fill="white" fill-opacity="0.2"/>
<path d="M0.333333 3C0.333333 4.47276 1.52724 5.66667 3 5.66667C4.47276 5.66667 5.66667 4.47276 5.66667 3C5.66667 1.52724 4.47276 0.333333 3 0.333333C1.52724 0.333333 0.333333 1.52724 0.333333 3ZM2.5 3L2.5 106L3.5 106L3.5 3L2.5 3Z" fill="white" fill-opacity="0.2"/>
</svg>
