<svg width="134" height="141" viewBox="0 0 134 141" fill="none" xmlns="http://www.w3.org/2000/svg">
<path d="M0.333333 138.312C0.333333 139.785 1.52724 140.979 3 140.979C4.47276 140.979 5.66667 139.785 5.66667 138.312C5.66667 136.84 4.47276 135.646 3 135.646C1.52724 135.646 0.333333 136.84 0.333333 138.312ZM2.5 80.0039V138.312H3.5V80.0039H2.5Z" fill="black" fill-opacity="0.2"/>
<path d="M127.833 2.89844C127.833 4.3712 129.027 5.5651 130.5 5.5651C131.973 5.5651 133.167 4.3712 133.167 2.89844C133.167 1.42568 131.973 0.231771 130.5 0.231771C129.027 0.231771 127.833 1.42568 127.833 2.89844ZM130.5 45.8984V46.3984H131V45.8984H130.5ZM3 45.8984V45.3984H2.5V45.8984H3ZM130 2.89844V45.8984H131V2.89844H130ZM130.5 45.3984H3V46.3984H130.5V45.3984ZM2.5 45.8984V80.3984H3.5V45.8984H2.5Z" fill="white" fill-opacity="0.2"/>
</svg>
