<svg width="6" height="222" viewBox="0 0 6 222" fill="none" xmlns="http://www.w3.org/2000/svg">
<path d="M0.348958 3.53906C0.348958 5.01182 1.54287 6.20573 3.01562 6.20573C4.48838 6.20573 5.68229 5.01182 5.68229 3.53906C5.68229 2.0663 4.48838 0.872396 3.01562 0.872396C1.54287 0.872396 0.348958 2.0663 0.348958 3.53906ZM2.51562 3.53906V99.9664H3.51562V3.53906H2.51562Z" fill="black" fill-opacity="0.2"/>
<path d="M0.231771 218.388C0.231771 219.861 1.42568 221.055 2.89844 221.055C4.3712 221.055 5.5651 219.861 5.5651 218.388C5.5651 216.916 4.3712 215.722 2.89844 215.722C1.42568 215.722 0.231771 216.916 0.231771 218.388ZM2.39844 99.9062V218.388H3.39844V99.9062H2.39844Z" fill="white" fill-opacity="0.2"/>
</svg>
