<svg width="862" height="454" viewBox="0 0 862 454" fill="none" xmlns="http://www.w3.org/2000/svg">
<path d="M802.759 3.05859C802.759 4.53135 803.953 5.72526 805.426 5.72526C806.899 5.72526 808.092 4.53135 808.092 3.05859C808.092 1.58583 806.899 0.391927 805.426 0.391927C803.953 0.391927 802.759 1.58583 802.759 3.05859ZM861.426 3.05859H861.926V2.55859H861.426V3.05859ZM805.426 3.55859H861.426V2.55859H805.426V3.55859ZM860.926 3.05859V60.3808H861.926V3.05859H860.926ZM860.926 60.3808V225.929H861.926V60.3808H860.926Z" fill="white" fill-opacity="0.2"/>
<path d="M861.43 451.001V451.501H861.93V451.001H861.43ZM0.247396 451.001C0.247396 452.474 1.4413 453.668 2.91406 453.668C4.38682 453.668 5.58073 452.474 5.58073 451.001C5.58073 449.528 4.38682 448.334 2.91406 448.334C1.4413 448.334 0.247396 449.528 0.247396 451.001ZM860.93 225.93V451.001H861.93V225.93H860.93ZM861.43 450.501H2.91406V451.501H861.43V450.501Z" fill="white" fill-opacity="0.2"/>
</svg>
