<svg width="24" height="25" viewBox="0 0 24 25" fill="none" xmlns="http://www.w3.org/2000/svg">
<path d="M20.4 0H3.6C1.61177 0 0 1.61177 0 3.6V20.4C0 22.3882 1.61177 24 3.6 24H20.4C22.3882 24 24 22.3882 24 20.4V3.6C24 1.61177 22.3882 0 20.4 0Z" fill="#373737"/>
<path d="M15.703 23.3924C16.3592 23.3924 16.2655 24.1893 16.2655 24.1893H7.73422C7.73422 24.1893 7.64047 23.3924 8.29672 23.3924C8.9061 23.3924 9.04672 23.1111 9.04672 22.8299L8.99985 20.4861C5.67172 21.2361 4.9686 19.1736 4.9686 19.1736C4.4061 17.7674 3.6561 17.4393 3.6561 17.4393C2.5311 16.6893 3.70297 16.6893 3.70297 16.6893C4.92172 16.783 5.57797 17.908 5.57797 17.908C6.60922 19.7361 8.3436 19.2205 9.04672 18.9393C9.14047 18.1424 9.4686 17.6268 9.79672 17.2986C7.12485 17.0174 4.35922 15.9861 4.35922 11.3924C4.35922 10.0799 4.82797 9.00177 5.57797 8.15802C5.43735 7.87677 5.06235 6.65802 5.7186 5.0174C5.7186 5.0174 6.70297 4.68927 8.99985 6.23615C10.9686 5.67365 13.0311 5.67365 14.9998 6.23615C17.2967 4.68927 18.2811 5.0174 18.2811 5.0174C18.9373 6.65802 18.5623 7.87677 18.4217 8.15802C19.1717 9.00177 19.6405 10.0799 19.6405 11.3924C19.6405 15.9861 16.828 17.0174 14.1561 17.2986C14.6248 17.6736 14.9998 18.4236 14.9998 19.5486L14.953 22.8299C14.953 23.1111 15.0936 23.3924 15.703 23.3924Z" fill="white"/>
</svg>
