<svg width="32" height="208" viewBox="0 0 32 208" fill="none" xmlns="http://www.w3.org/2000/svg">
<path d="M28.9059 204.727V205.227H29.4059V204.727H28.9059ZM0.489583 204.727C0.489583 206.199 1.68349 207.393 3.15625 207.393C4.62901 207.393 5.82292 206.199 5.82292 204.727C5.82292 203.254 4.62901 202.06 3.15625 202.06C1.68349 202.06 0.489583 203.254 0.489583 204.727ZM28.4059 84.9766V204.727H29.4059V84.9766H28.4059ZM28.9059 204.227H3.15625V205.227H28.9059V204.227Z" fill="white" fill-opacity="0.2"/>
<path d="M26.2396 2.78043C26.2348 4.25318 27.4249 5.45095 28.8976 5.45572C30.3704 5.46048 31.5681 4.27045 31.5729 2.7977C31.5777 1.32495 30.3876 0.127179 28.9149 0.12241C27.4421 0.117641 26.2444 1.30768 26.2396 2.78043ZM28.4063 2.78906L28.4056 85.021L29.4056 85.021L29.4062 2.78907L28.4063 2.78906Z" fill="black" fill-opacity="0.2"/>
</svg>
