<svg width="24" height="24" viewBox="0 0 24 24" fill="none" xmlns="http://www.w3.org/2000/svg">
<g clip-path="url(#clip0_412_39)">
<path d="M20.4 0H3.6C1.61177 0 0 1.61177 0 3.6V20.4C0 22.3882 1.61177 24 3.6 24H20.4C22.3882 24 24 22.3882 24 20.4V3.6C24 1.61177 22.3882 0 20.4 0Z" fill="#373737"/>
<path d="M15.4219 4.78125H8.57812C6.48117 4.78125 4.78125 6.48117 4.78125 8.57812V15.4219C4.78125 17.5188 6.48117 19.2188 8.57812 19.2188H15.4219C17.5188 19.2188 19.2188 17.5188 19.2188 15.4219V8.57812C19.2188 6.48117 17.5188 4.78125 15.4219 4.78125Z" stroke="white" stroke-width="1.40625"/>
<path d="M12 15.375C13.864 15.375 15.375 13.864 15.375 12C15.375 10.136 13.864 8.625 12 8.625C10.136 8.625 8.625 10.136 8.625 12C8.625 13.864 10.136 15.375 12 15.375Z" stroke="white" stroke-width="1.40625"/>
<path d="M16.2656 8.01562C16.421 8.01562 16.5469 7.88971 16.5469 7.73438C16.5469 7.57904 16.421 7.45312 16.2656 7.45312C16.1103 7.45312 15.9844 7.57904 15.9844 7.73438C15.9844 7.88971 16.1103 8.01562 16.2656 8.01562Z" stroke="white" stroke-width="1.40625"/>
</g>
<defs>
<clipPath id="clip0_412_39">
<rect width="24" height="24" fill="white"/>
</clipPath>
</defs>
</svg>
