<svg width="72" height="72" viewBox="0 0 72 72" fill="none" xmlns="http://www.w3.org/2000/svg">
<g clip-path="url(#clip0_447_3474)">
<path d="M72 0.0507812H0V72.0508H72V0.0507812Z" fill="#0000FF"/>
<circle cx="30.158" cy="36.0017" r="8.37281" fill="#FF7300"/>
<path d="M30.1621 14.9165H29.3701V26.2514C23.9907 26.6937 19.9896 31.4251 20.4318 36.8045C20.8227 41.5668 24.6078 45.3417 29.3701 45.7428V57.088H30.1621C41.8056 57.2731 51.4021 47.9954 51.5976 36.3417C51.7827 24.6982 42.505 15.1017 30.8513 14.9062C30.6147 14.9165 30.3884 14.9165 30.1621 14.9165ZM21.9541 36.0023C21.9541 31.4765 25.6261 27.8045 30.1518 27.8045C34.6776 27.8045 38.3496 31.4765 38.3496 36.0023C38.3496 40.528 34.6776 44.2 30.1518 44.2C25.6364 44.2 21.9644 40.528 21.9541 36.0023ZM30.9541 55.4937V45.7942C36.3541 45.3108 40.345 40.5383 39.8616 35.1383C39.4398 30.4068 35.6856 26.6525 30.9541 26.2308V16.5211C41.713 16.9325 50.1164 25.984 49.705 36.7428C49.3141 46.936 41.1473 55.1131 30.9541 55.4937Z" fill="white"/>
</g>
<defs>
<clipPath id="clip0_447_3474">
<rect width="72" height="72" rx="10" fill="white"/>
</clipPath>
</defs>
</svg>
