<svg width="24" height="24" viewBox="0 0 24 24" fill="none" xmlns="http://www.w3.org/2000/svg">
<g clip-path="url(#clip0_412_47)">
<path d="M20.4 0H3.6C1.61177 0 0 1.61177 0 3.6V20.4C0 22.3882 1.61177 24 3.6 24H20.4C22.3882 24 24 22.3882 24 20.4V3.6C24 1.61177 22.3882 0 20.4 0Z" fill="#373737"/>
<path d="M12.4219 3.04688C7.54688 3.04688 5.0625 6.5625 5.0625 9.51562C5.0625 11.25 5.71875 12.8438 7.17188 13.4062C7.40625 13.5 7.64062 13.4062 7.73438 13.1719L7.875 12.3281C7.96875 12.0469 7.92188 12 7.78125 11.7656C7.35938 11.25 7.07812 10.6406 7.07812 9.75C7.07812 7.125 9 4.78125 12.1406 4.78125C14.9531 4.78125 16.4531 6.51562 16.4531 8.76562C16.4531 11.7656 15.1406 14.2031 13.1719 14.2031C12.0938 14.2031 11.2969 13.3594 11.5781 12.2344C11.8594 10.9688 12.4688 9.5625 12.4688 8.625C12.4688 7.78125 12.0469 7.03125 11.0625 7.03125C9.9375 7.03125 9.09375 8.20312 9.09375 9.75C9.09375 10.6875 9.42188 11.3438 9.42188 11.3438L8.0625 16.9688C7.85964 18.3078 7.89136 19.6719 8.15625 21L8.29688 20.9531C8.39062 20.8125 9.75 19.2188 10.1719 17.5781L10.9219 14.7188C11.25 15.4219 12.2812 16.0312 13.4062 16.0312C16.7344 16.0312 18.9844 13.0312 18.9844 8.95312C18.9844 5.85938 16.3594 3.04688 12.4219 3.04688Z" fill="white"/>
</g>
<defs>
<clipPath id="clip0_412_47">
<rect width="24" height="24" fill="white"/>
</clipPath>
</defs>
</svg>
