<svg width="72" height="72" viewBox="0 0 72 72" fill="none" xmlns="http://www.w3.org/2000/svg">
<g clip-path="url(#clip0_447_3511)">
<rect width="72" height="72" rx="10" fill="white"/>
<path d="M9.58203 25.0977V26.5893H19.868V25.0977H9.58203ZM21.3253 25.0977V26.5893H35.9834C35.9834 26.5893 34.4862 25.0977 32.5031 25.0977H21.3253ZM38.8588 25.0977V26.5893H47.7267L47.2004 25.0977H38.8588ZM54.0845 25.0977L53.5581 26.5893H62.3455V25.0977H54.0845ZM9.58203 27.9985V29.4901H19.868V27.9985H9.58203ZM21.3253 28.0006V29.4902H37.6843C37.6843 29.4902 37.4932 28.3422 37.16 28.0006H21.3253ZM38.8588 28.0006V29.4902H48.699L48.2118 28.0006H38.8588ZM53.0318 28.0006L52.5446 29.4902H62.3455V28.0006H53.0318ZM12.538 30.8994V32.3931H16.9926V30.8994H12.538ZM24.2813 30.8994V32.3931H28.7359V30.8994H24.2813ZM33.0687 30.8994V32.3931H37.5233C37.5233 32.3931 37.8061 31.6043 37.8061 30.8994H33.0687ZM41.8148 30.8994V32.3931H49.7125L49.1861 30.8994H41.8148ZM52.0616 30.8994L51.5332 32.3931H59.4701V30.8994H52.0616ZM12.538 33.8024V35.294H16.9926V33.8024H12.538ZM24.2813 33.8024V35.294H35.6593C35.6593 35.294 36.6111 34.5287 36.9143 33.8024H24.2813ZM41.8148 33.8024V35.294H46.2694V34.4637L46.5522 35.294H54.7121L55.0155 34.4637V35.294H59.4701V33.8024H51.1079L50.6641 35.0658L50.2182 33.8024H41.8148ZM12.538 36.7032V38.1949H16.9926V36.7032H12.538ZM24.2813 36.7032V38.1949H36.9143C36.6111 37.471 35.6593 36.7032 35.6593 36.7032H24.2813ZM41.8148 36.7032V38.1949H46.2694V36.7032H41.8148ZM47.0786 36.7032L47.6173 38.1949H53.7357L54.2476 36.7032H47.0786ZM55.0155 36.7032V38.1949H59.4701V36.7032H55.0155ZM12.538 39.6041V41.0956H16.9926V39.6041H12.538ZM24.2813 39.6041V41.0956H28.7359V39.6041H24.2813ZM33.0687 39.6041V41.0956H37.8061C37.8061 40.3917 37.5233 39.6041 37.5233 39.6041H33.0687ZM41.8148 39.6041V41.0956H46.2694V39.6041H41.8148ZM48.0901 39.6041L48.6123 41.0956H52.7139L53.2403 39.6041H48.0901ZM55.0155 39.6041V41.0956H59.4701V39.6041H55.0155ZM9.66251 42.5049V43.9987H19.9485V42.5049H9.66251ZM21.3253 42.5049V43.9987H37.16C37.4932 43.6567 37.6843 42.5049 37.6843 42.5049H21.3253ZM38.9394 42.5049V43.9987H46.2694V42.5049H38.9394ZM49.1036 42.5049L49.6402 43.9987H51.7272L52.2308 42.5049H49.1036ZM55.0155 42.5049V43.9987H62.4261V42.5049H55.0155ZM9.66251 45.4079V46.8995H19.9485V45.4079H9.66251ZM21.3253 45.4079V46.8974H32.5031C34.4862 46.8974 35.9834 45.4079 35.9834 45.4079H21.3253ZM38.9394 45.4079V46.8995H46.2694V45.4079H38.9394ZM50.1212 45.4079L50.6373 46.8953L50.7261 46.8974L51.2504 45.4079H50.1212ZM55.0155 45.4079V46.8995H62.4261V45.4079H55.0155Z" fill="#1F70C1"/>
<g clip-path="url(#clip1_447_3511)">
<path d="M61.2 0H10.8C4.83532 0 0 4.83532 0 10.8V61.2C0 67.1647 4.83532 72 10.8 72H61.2C67.1647 72 72 67.1647 72 61.2V10.8C72 4.83532 67.1647 0 61.2 0Z" fill="#00AB00"/>
<path d="M50.2313 41.7523C47.8406 41.7523 45.5906 40.7398 43.5656 39.0945L44.0578 36.7602L44.0719 36.6758C44.5219 34.2008 45.9141 30.0383 50.2313 30.0383C53.4656 30.0383 56.0953 32.668 56.0953 35.9023C56.0953 39.1367 53.4656 41.7523 50.2313 41.7523ZM50.2313 24.1039C44.7188 24.1039 40.4578 27.6758 38.7141 33.568C36.0703 29.5883 34.0594 24.8211 32.8922 20.7992H26.9578V36.2258C26.9578 39.2773 24.4828 41.7523 21.4312 41.7523C18.3797 41.7523 15.9047 39.2773 15.9047 36.2258V20.7852H9.98438V36.2117C9.98438 42.5258 15.1172 47.7148 21.4312 47.7148C27.7453 47.7148 32.8781 42.5258 32.8781 36.2117V33.6242C34.0312 36.0289 35.4375 38.4617 37.1531 40.5992L33.525 57.6711H39.5859L42.2156 45.2961C44.5219 46.7727 47.1656 47.7008 50.2031 47.7008C56.7 47.7008 61.9875 42.3852 61.9875 35.8742C62.0016 29.3914 56.7281 24.1039 50.2313 24.1039Z" fill="white"/>
</g>
</g>
<defs>
<clipPath id="clip0_447_3511">
<rect width="72" height="72" rx="10" fill="white"/>
</clipPath>
<clipPath id="clip1_447_3511">
<rect width="72" height="72" fill="white"/>
</clipPath>
</defs>
</svg>
