<svg width="24" height="24" viewBox="0 0 24 24" fill="none" xmlns="http://www.w3.org/2000/svg">
<g clip-path="url(#clip0_412_55)">
<path d="M20.4 0H3.6C1.61177 0 0 1.61177 0 3.6V20.4C0 22.3882 1.61177 24 3.6 24H20.4C22.3882 24 24 22.3882 24 20.4V3.6C24 1.61177 22.3882 0 20.4 0Z" fill="#373737"/>
<path d="M16.7438 13.9187C15.9469 13.9187 15.1969 13.5812 14.5219 13.0328L14.6859 12.2547L14.6906 12.2266C14.8406 11.4016 15.3047 10.0141 16.7438 10.0141C17.8219 10.0141 18.6984 10.8906 18.6984 11.9688C18.6984 13.0469 17.8219 13.9187 16.7438 13.9187ZM16.7438 8.03594C14.9063 8.03594 13.4859 9.22656 12.9047 11.1906C12.0234 9.86406 11.3531 8.275 10.9641 6.93437H8.98594V12.0766C8.98594 13.0938 8.16094 13.9187 7.14375 13.9187C6.12656 13.9187 5.30156 13.0938 5.30156 12.0766V6.92969H3.32812V12.0719C3.32812 14.1766 5.03906 15.9062 7.14375 15.9062C9.24844 15.9062 10.9594 14.1766 10.9594 12.0719V11.2094C11.3438 12.0109 11.8125 12.8219 12.3844 13.5344L11.175 19.225H13.1953L14.0719 15.1C14.8406 15.5922 15.7219 15.9016 16.7344 15.9016C18.9 15.9016 20.6625 14.1297 20.6625 11.9594C20.6672 9.79844 18.9094 8.03594 16.7438 8.03594Z" fill="white"/>
</g>
<defs>
<clipPath id="clip0_412_55">
<rect width="24" height="24" fill="white"/>
</clipPath>
</defs>
</svg>
