<svg width="374" height="284" viewBox="0 0 374 284" fill="none" xmlns="http://www.w3.org/2000/svg">
<path d="M368.56 3.54297C368.56 5.01573 369.754 6.20964 371.227 6.20964C372.699 6.20964 373.893 5.01573 373.893 3.54297C373.893 2.07021 372.699 0.876302 371.227 0.876302C369.754 0.876302 368.56 2.07021 368.56 3.54297ZM371.227 184.039V184.539H371.727V184.039H371.227ZM3.10156 184.039V183.539H2.60156V184.039H3.10156ZM0.434896 281.143C0.434896 282.615 1.6288 283.809 3.10156 283.809C4.57432 283.809 5.76823 282.615 5.76823 281.143C5.76823 279.67 4.57432 278.476 3.10156 278.476C1.6288 278.476 0.434896 279.67 0.434896 281.143ZM370.727 3.54297V184.039H371.727V3.54297H370.727ZM371.227 183.539H3.10156V184.539H371.227V183.539ZM2.60156 184.039V281.143H3.60156V184.039H2.60156Z" fill="white" fill-opacity="0.2"/>
</svg>
