<svg width="183" height="7" viewBox="0 0 183 7" fill="none" xmlns="http://www.w3.org/2000/svg">
<path d="M0.833333 3.5C0.833333 4.97276 2.02724 6.16667 3.5 6.16667C4.97276 6.16667 6.16667 4.97276 6.16667 3.5C6.16667 2.02724 4.97276 0.833333 3.5 0.833333C2.02724 0.833333 0.833333 2.02724 0.833333 3.5ZM176.833 3.5C176.833 4.97276 178.027 6.16667 179.5 6.16667C180.973 6.16667 182.167 4.97276 182.167 3.5C182.167 2.02724 180.973 0.833333 179.5 0.833333C178.027 0.833333 176.833 2.02724 176.833 3.5ZM3.5 4H179.5V3H3.5V4Z" fill="white" fill-opacity="0.2"/>
</svg>
