<svg width="102" height="260" viewBox="0 0 102 260" fill="none" xmlns="http://www.w3.org/2000/svg">
<path d="M0.153646 2.98047C0.153646 4.45323 1.34755 5.64714 2.82031 5.64714C4.29307 5.64714 5.48698 4.45323 5.48698 2.98047C5.48698 1.50771 4.29307 0.313802 2.82031 0.313802C1.34755 0.313802 0.153646 1.50771 0.153646 2.98047ZM2.82031 256.398H2.32031V256.898H2.82031V256.398ZM95.7842 256.398C95.7842 257.871 96.9781 259.065 98.4509 259.065C99.9236 259.065 101.118 257.871 101.118 256.398C101.118 254.926 99.9236 253.732 98.4509 253.732C96.9781 253.732 95.7842 254.926 95.7842 256.398ZM2.32031 2.98047V256.398H3.32031V2.98047H2.32031ZM2.82031 256.898H98.4509V255.898H2.82031V256.898Z" fill="black" fill-opacity="0.2"/>
</svg>
