<svg width="151" height="7" viewBox="0 0 151 7" fill="none" xmlns="http://www.w3.org/2000/svg">
<path d="M0.247396 3.57812C0.247396 5.05088 1.4413 6.24479 2.91406 6.24479C4.38682 6.24479 5.58073 5.05088 5.58073 3.57812C5.58073 2.10537 4.38682 0.911458 2.91406 0.911458C1.4413 0.911458 0.247396 2.10537 0.247396 3.57812ZM144.814 3.57812C144.814 5.05088 146.008 6.24479 147.481 6.24479C148.953 6.24479 150.147 5.05088 150.147 3.57812C150.147 2.10537 148.953 0.911458 147.481 0.911458C146.008 0.911458 144.814 2.10537 144.814 3.57812ZM2.91406 4.07812H147.481V3.07812H2.91406V4.07812Z" fill="white" fill-opacity="0.2"/>
</svg>
