<svg width="68" height="6" viewBox="0 0 68 6" fill="none" xmlns="http://www.w3.org/2000/svg">
<path d="M0.286458 3.25391C0.286458 4.72667 1.48037 5.92057 2.95312 5.92057C4.42588 5.92057 5.61979 4.72667 5.61979 3.25391C5.61979 1.78115 4.42588 0.58724 2.95312 0.58724C1.48037 0.58724 0.286458 1.78115 0.286458 3.25391ZM62.2865 3.25391C62.2865 4.72667 63.4804 5.92057 64.9531 5.92057C66.4259 5.92057 67.6198 4.72667 67.6198 3.25391C67.6198 1.78115 66.4259 0.58724 64.9531 0.58724C63.4804 0.58724 62.2865 1.78115 62.2865 3.25391ZM2.95312 3.75391H64.9531V2.75391H2.95312V3.75391Z" fill="white" fill-opacity="0.2"/>
</svg>
