<svg width="130" height="48" viewBox="0 0 130 48" fill="none" xmlns="http://www.w3.org/2000/svg">
<path d="M0.419271 3C0.419271 4.47276 1.61318 5.66667 3.08594 5.66667C4.5587 5.66667 5.7526 4.47276 5.7526 3C5.7526 1.52724 4.5587 0.333333 3.08594 0.333333C1.61318 0.333333 0.419271 1.52724 0.419271 3ZM126.999 3H127.499V2.5H126.999V3ZM124.333 44.4283C124.333 45.9011 125.527 47.095 126.999 47.095C128.472 47.095 129.666 45.9011 129.666 44.4283C129.666 42.9556 128.472 41.7617 126.999 41.7617C125.527 41.7617 124.333 42.9556 124.333 44.4283ZM3.08594 3.5H126.999V2.5H3.08594V3.5ZM126.499 3V44.4283H127.499V3H126.499Z" fill="white" fill-opacity="0.2"/>
</svg>
