<svg width="89" height="350" viewBox="0 0 89 350" fill="none" xmlns="http://www.w3.org/2000/svg">
<path d="M82.7201 3.5C82.7201 4.97276 83.914 6.16667 85.3867 6.16667C86.8595 6.16667 88.0534 4.97276 88.0534 3.5C88.0534 2.02724 86.8595 0.833333 85.3867 0.833333C83.914 0.833333 82.7201 2.02724 82.7201 3.5ZM85.3867 346.5V347H85.8867V346.5H85.3867ZM0.220052 346.5C0.220052 347.973 1.41396 349.167 2.88672 349.167C4.35948 349.167 5.55339 347.973 5.55339 346.5C5.55339 345.027 4.35948 343.833 2.88672 343.833C1.41396 343.833 0.220052 345.027 0.220052 346.5ZM84.8867 3.5V346.5H85.8867V3.5H84.8867ZM85.3867 346H2.88672V347H85.3867V346Z" fill="white" fill-opacity="0.2"/>
</svg>
