<svg width="7" height="89" viewBox="0 0 7 89" fill="none" xmlns="http://www.w3.org/2000/svg">
<path d="M0.880208 3.24609C0.880208 4.71885 2.07412 5.91276 3.54688 5.91276C5.01963 5.91276 6.21354 4.71885 6.21354 3.24609C6.21354 1.77333 5.01963 0.579427 3.54688 0.579427C2.07412 0.579427 0.880208 1.77333 0.880208 3.24609ZM0.880208 85.8438C0.880208 87.3165 2.07412 88.5104 3.54688 88.5104C5.01963 88.5104 6.21354 87.3165 6.21354 85.8438C6.21354 84.371 5.01963 83.1771 3.54688 83.1771C2.07412 83.1771 0.880208 84.371 0.880208 85.8438ZM3.04688 3.24609V85.8438H4.04688V3.24609H3.04688Z" fill="white" fill-opacity="0.2"/>
</svg>
