<svg width="168" height="120" viewBox="0 0 168 120" fill="none" xmlns="http://www.w3.org/2000/svg">
<path d="M161.93 3.39844C161.93 4.8712 163.124 6.0651 164.596 6.0651C166.069 6.0651 167.263 4.8712 167.263 3.39844C167.263 1.92568 166.069 0.731771 164.596 0.731771C163.124 0.731771 161.93 1.92568 161.93 3.39844ZM164.596 63.2357V63.7357H165.096V63.2357H164.596ZM3 63.2357V62.7357H2.5V63.2357H3ZM0.333333 116.527C0.333333 118 1.52724 119.194 3 119.194C4.47276 119.194 5.66667 118 5.66667 116.527C5.66667 115.055 4.47276 113.861 3 113.861C1.52724 113.861 0.333333 115.055 0.333333 116.527ZM164.096 3.39844V63.2357H165.096V3.39844H164.096ZM164.596 62.7357H3V63.7357H164.596V62.7357ZM2.5 63.2357V116.527H3.5V63.2357H2.5Z" fill="black" fill-opacity="0.2"/>
</svg>
