<svg width="209" height="6" viewBox="0 0 209 6" fill="none" xmlns="http://www.w3.org/2000/svg">
<path d="M0.333333 3C0.333333 4.47276 1.52724 5.66667 3 5.66667C4.47276 5.66667 5.66667 4.47276 5.66667 3C5.66667 1.52724 4.47276 0.333333 3 0.333333C1.52724 0.333333 0.333333 1.52724 0.333333 3ZM203.602 3C203.602 4.47276 204.796 5.66667 206.269 5.66667C207.742 5.66667 208.936 4.47276 208.936 3C208.936 1.52724 207.742 0.333333 206.269 0.333333C204.796 0.333333 203.602 1.52724 203.602 3ZM3 3.5H206.269V2.5H3V3.5Z" fill="black" fill-opacity="0.2"/>
</svg>
