<svg width="82" height="7" viewBox="0 0 82 7" fill="none" xmlns="http://www.w3.org/2000/svg">
<path d="M0.96224 3.61719C0.96224 5.08995 2.15615 6.28385 3.62891 6.28385C5.10167 6.28385 6.29557 5.08995 6.29557 3.61719C6.29557 2.14443 5.10167 0.950521 3.62891 0.950521C2.15615 0.950521 0.96224 2.14443 0.96224 3.61719ZM76.1986 3.61719C76.1986 5.08995 77.3925 6.28385 78.8652 6.28385C80.338 6.28385 81.5319 5.08995 81.5319 3.61719C81.5319 2.14443 80.338 0.950521 78.8652 0.950521C77.3925 0.950521 76.1986 2.14443 76.1986 3.61719ZM3.62891 4.11719H78.8652V3.11719H3.62891V4.11719Z" fill="white" fill-opacity="0.2"/>
</svg>
