<svg width="139" height="99" viewBox="0 0 139 99" fill="none" xmlns="http://www.w3.org/2000/svg">
<path d="M1 29.8984H0.5V30.3984H1V29.8984ZM138 29.8984H138.5V29.3984H138V29.8984ZM138 95.3984V95.8984H138.5V95.3984H138ZM104.68 95.3984C104.68 96.8712 105.874 98.0651 107.347 98.0651C108.82 98.0651 110.014 96.8712 110.014 95.3984C110.014 93.9257 108.82 92.7318 107.347 92.7318C105.874 92.7318 104.68 93.9257 104.68 95.3984ZM0.5 0.398438V29.8984H1.5V0.398438H0.5ZM1 30.3984H138V29.3984H1V30.3984ZM137.5 29.8984V95.3984H138.5V29.8984H137.5ZM138 94.8984H107.347V95.8984H138V94.8984Z" fill="white" fill-opacity="0.2"/>
</svg>
