<svg width="7" height="88" viewBox="0 0 7 88" fill="none" xmlns="http://www.w3.org/2000/svg">
<path d="M0.973958 3.27734C0.973958 4.7501 2.16787 5.94401 3.64062 5.94401C5.11338 5.94401 6.30729 4.7501 6.30729 3.27734C6.30729 1.80458 5.11338 0.610677 3.64062 0.610677C2.16787 0.610677 0.973958 1.80458 0.973958 3.27734ZM0.973958 85.2109C0.973958 86.6837 2.16787 87.8776 3.64062 87.8776C5.11338 87.8776 6.30729 86.6837 6.30729 85.2109C6.30729 83.7382 5.11338 82.5443 3.64062 82.5443C2.16787 82.5443 0.973958 83.7382 0.973958 85.2109ZM3.14062 3.27734V85.2109H4.14062V3.27734H3.14062Z" fill="black" fill-opacity="0.2"/>
</svg>
