<svg width="6" height="75" viewBox="0 0 6 75" fill="none" xmlns="http://www.w3.org/2000/svg">
<path d="M0.333333 3C0.333333 4.47276 1.52724 5.66667 3 5.66667C4.47276 5.66667 5.66667 4.47276 5.66667 3C5.66667 1.52724 4.47276 0.333333 3 0.333333C1.52724 0.333333 0.333333 1.52724 0.333333 3ZM0.333333 72C0.333333 73.4728 1.52724 74.6667 3 74.6667C4.47276 74.6667 5.66667 73.4728 5.66667 72C5.66667 70.5272 4.47276 69.3333 3 69.3333C1.52724 69.3333 0.333333 70.5272 0.333333 72ZM2.5 3V72H3.5V3H2.5Z" fill="white" fill-opacity="0.2"/>
</svg>
