<svg width="366" height="130" viewBox="0 0 366 130" fill="none" xmlns="http://www.w3.org/2000/svg">
<path d="M360.568 2.75781C360.568 4.23057 361.762 5.42448 363.235 5.42448C364.707 5.42448 365.901 4.23057 365.901 2.75781C365.901 1.28505 364.707 0.0911458 363.235 0.0911458C361.762 0.0911458 360.568 1.28505 360.568 2.75781ZM363.235 71.3594V71.8594H363.735V71.3594H363.235ZM3.50391 71.3594V70.8594H3.00391V71.3594H3.50391ZM0.83724 126.91C0.83724 128.383 2.03115 129.577 3.50391 129.577C4.97667 129.577 6.17057 128.383 6.17057 126.91C6.17057 125.438 4.97667 124.244 3.50391 124.244C2.03115 124.244 0.83724 125.438 0.83724 126.91ZM362.735 2.75781V71.3594H363.735V2.75781H362.735ZM363.235 70.8594H3.50391V71.8594H363.235V70.8594ZM3.00391 71.3594V126.91H4.00391V71.3594H3.00391Z" fill="white" fill-opacity="0.2"/>
</svg>
