<svg width="83" height="123" viewBox="0 0 83 123" fill="none" xmlns="http://www.w3.org/2000/svg">
<path d="M76.7899 3.45703C76.7899 4.92979 77.9838 6.1237 79.4566 6.1237C80.9293 6.1237 82.1232 4.92979 82.1232 3.45703C82.1232 1.98427 80.9293 0.790365 79.4566 0.790365C77.9838 0.790365 76.7899 1.98427 76.7899 3.45703ZM79.4566 119.801V120.301H79.9566V119.801H79.4566ZM0.989583 119.801C0.989583 121.274 2.18349 122.467 3.65625 122.467C5.12901 122.467 6.32292 121.274 6.32292 119.801C6.32292 118.328 5.12901 117.134 3.65625 117.134C2.18349 117.134 0.989583 118.328 0.989583 119.801ZM78.9566 3.45703V119.801H79.9566V3.45703H78.9566ZM79.4566 119.301H3.65625V120.301H79.4566V119.301Z" fill="black" fill-opacity="0.2"/>
</svg>
